<svg width="112" height="112" viewBox="0 0 112 112" fill="none" xmlns="http://www.w3.org/2000/svg">
<rect width="112" height="112" fill="#FAFAFA"/>
<g clip-path="url(#clip0_77_470)">
<path d="M87.8587 72.3844L79.6358 70.0558V18.5234C79.6358 17.6822 78.9538 17 78.1124 17H24.5564C23.715 17 23.033 17.6822 23.033 18.5234V45.6446C23.033 46.4858 23.715 47.168 24.5564 47.168C25.3978 47.168 26.0798 46.4858 26.0798 45.6446V20.0469H76.5888V70.0558L68.3659 72.3844C67.7102 72.5703 67.2576 73.1687 67.2576 73.8503V81.1804C67.2576 82.5947 67.4876 84.0156 67.93 85.3583H26.0798V59.0105C26.0099 57.0009 23.1099 56.9843 23.033 59.0105V86.8818C23.033 87.723 23.715 88.4052 24.5564 88.4052H69.3956C71.258 91.4876 74.3592 92.9856 77.3272 94.7822C77.8103 95.0725 78.4142 95.0725 78.8974 94.7822L82.4994 92.6163C86.4889 90.2175 88.9672 85.8355 88.9672 81.1804V73.8503C88.967 73.1687 88.5144 72.5703 87.8587 72.3844ZM85.9202 81.1804C85.9202 84.7726 84.0078 88.154 80.9292 90.0051L78.1124 91.6989L75.2954 90.0051C72.238 88.1668 70.3049 84.748 70.3049 81.1807V75.0029L78.1138 72.7916L85.9203 75.0021V81.1804H85.9202Z" fill="#404040" stroke="#FAFAFA" stroke-width="0.5"/>
<path d="M77.4873 81.3153L76.457 80.285C75.8621 79.6902 74.8975 79.6902 74.3024 80.285C73.7075 80.8799 73.7075 81.8445 74.3024 82.4396L76.4099 84.5471C77.005 85.142 77.9695 85.142 78.5645 84.5471L82.9201 80.1916C83.515 79.5967 83.515 78.6321 82.9201 78.037C82.3251 77.4423 81.3605 77.4423 80.7655 78.037L77.4873 81.3153Z" fill="#404040" stroke="#FAFAFA" stroke-width="0.5"/>
<path d="M39.7344 40.3646C43.3526 40.3646 46.2962 37.4211 46.2962 33.8029C45.9662 25.1097 33.5011 25.1121 33.1725 33.803C33.1727 37.4211 36.1162 40.3646 39.7344 40.3646ZM39.7344 30.288C41.6725 30.288 43.2493 31.8649 43.2493 33.8029C43.0726 38.4594 36.3955 38.4582 36.2194 33.8029C36.2195 31.8648 37.7963 30.288 39.7344 30.288Z" fill="#404040" stroke="#FAFAFA" stroke-width="0.5"/>
<path d="M39.7344 58.9185C43.3526 58.9185 46.2962 55.9749 46.2962 52.3567C45.9662 43.6635 33.5011 43.666 33.1725 52.3569C33.1727 55.9749 36.1162 58.9185 39.7344 58.9185ZM39.7344 48.8419C41.6725 48.8419 43.2493 50.4188 43.2493 52.3567C43.0726 57.0133 36.3955 57.0121 36.2194 52.3567C36.2195 50.4186 37.7963 48.8419 39.7344 48.8419Z" fill="#404040" stroke="#FAFAFA" stroke-width="0.5"/>
<path d="M39.7344 77.4723C43.3526 77.4723 46.2962 74.5287 46.2962 70.9105C45.9663 62.2176 33.5011 62.2199 33.1725 70.9107C33.1727 74.5287 36.1162 77.4723 39.7344 77.4723ZM39.7344 67.3958C41.6725 67.3958 43.2493 68.9725 43.2493 70.9105C43.0726 75.5671 36.3955 75.5658 36.2194 70.9105C36.2195 68.9724 37.7963 67.3958 39.7344 67.3958Z" fill="#404040" stroke="#FAFAFA" stroke-width="0.5"/>
<path d="M53.355 32.3995H68.1246C70.1437 32.3246 70.1422 29.4269 68.1246 29.3527H53.355C51.3358 29.4276 51.3374 32.3253 53.355 32.3995Z" fill="#404040" stroke="#FAFAFA" stroke-width="0.5"/>
<path d="M53.355 39.1174H61.41C63.4292 39.0425 63.4277 36.1447 61.41 36.0706H53.355C51.3358 36.1455 51.3374 39.0431 53.355 39.1174Z" fill="#404040" stroke="#FAFAFA" stroke-width="0.5"/>
<path d="M53.355 50.5212H68.1246C70.1437 50.4463 70.1422 47.5486 68.1246 47.4744H53.355C51.3358 47.5493 51.3374 50.447 53.355 50.5212Z" fill="#404040" stroke="#FAFAFA" stroke-width="0.5"/>
<path d="M53.355 57.239H61.41C63.4292 57.1641 63.4277 54.2663 61.41 54.1921H53.355C51.3358 54.2671 51.3374 57.1648 53.355 57.239Z" fill="#404040" stroke="#FAFAFA" stroke-width="0.5"/>
<path d="M53.355 68.643H68.1246C70.1437 68.5681 70.1422 65.6703 68.1246 65.5961H53.355C51.3358 65.6711 51.3374 68.5688 53.355 68.643Z" fill="#404040" stroke="#FAFAFA" stroke-width="0.5"/>
<path d="M53.355 75.3608H61.41C63.4292 75.2858 63.4277 72.3881 61.41 72.3139H53.355C51.3358 72.3889 51.3374 75.2866 53.355 75.3608Z" fill="#404040" stroke="#FAFAFA" stroke-width="0.5"/>
<path d="M23.7107 53.6233C24.9525 54.4488 26.5326 53.1519 25.9624 51.7738C25.4432 50.5335 23.6234 50.5507 23.1367 51.8086C22.8818 52.467 23.1251 53.2302 23.7107 53.6233Z" fill="#404040" stroke="#FAFAFA" stroke-width="0.5"/>
</g>
<defs>
<clipPath id="clip0_77_470">
<rect width="78" height="78" fill="white" transform="translate(17 17)"/>
</clipPath>
</defs>
</svg>
