<svg width="122" height="122" viewBox="0 0 122 122" fill="none" xmlns="http://www.w3.org/2000/svg">
<rect width="122" height="122" fill="#FAFAFA"/>
<path d="M98.323 102.422H97.4571V93.9388C97.4571 93.2269 96.8801 92.6497 96.168 92.6497C95.4559 92.6497 94.879 93.2269 94.879 93.9388V102.422H69.6362V72.4068L94.8788 80.6056V87.9228C94.8788 88.6348 95.4558 89.2119 96.1678 89.2119C96.8799 89.2119 97.4569 88.6348 97.4569 87.9228V79.6689C97.4569 79.1103 97.0972 78.6155 96.5659 78.4429L70.4088 69.9471C70.158 69.8517 69.8971 69.8029 69.636 69.7916V38.4323C69.636 37.0936 68.5469 36.0044 67.2081 36.0044H64.3533V30.5795C64.3533 29.3576 63.3591 28.3633 62.1369 28.3633H55.7257V18.2891C55.7257 17.5772 55.1487 17 54.4366 17C53.7245 17 53.1475 17.5772 53.1475 18.2891V28.3633H46.8435C45.5623 28.3633 44.5198 29.4056 44.5198 30.6869V36.0044H41.7079C40.3454 36.0044 39.237 37.1128 39.237 38.4753V50.5026H27.7116C26.3967 50.5026 25.3266 51.5723 25.3266 52.8875V102.422H23.6768C22.9647 102.422 22.3878 102.999 22.3878 103.711C22.3878 104.423 22.9649 105 23.6768 105C24.0493 105 96.4351 105 98.3228 105C99.0349 105 99.6119 104.423 99.6119 103.711C99.6122 102.999 99.0351 102.422 98.323 102.422ZM39.2372 102.422H27.9049V53.0809H39.2372V102.422ZM61.7752 30.9416V36.0044H47.0982V30.9416H61.7752ZM67.0579 72.2587V102.422H41.8155C41.8155 101.651 41.8155 40.0199 41.8155 38.5827C43.0116 38.5827 65.9508 38.5827 67.0579 38.5827V72.2587Z" fill="#404040"/>
<path d="M35.7969 58.6843H31.6169C30.9049 58.6843 30.3279 59.2615 30.3279 59.9734C30.3279 60.6853 30.9049 61.2625 31.6169 61.2625H35.7969C36.509 61.2625 37.086 60.6853 37.086 59.9734C37.0862 59.2615 36.509 58.6843 35.7969 58.6843Z" fill="#404040"/>
<path d="M35.7969 64.8758H31.6169C30.9049 64.8758 30.3279 65.4529 30.3279 66.1649C30.3279 66.8768 30.9049 67.4539 31.6169 67.4539H35.7969C36.509 67.4539 37.086 66.8768 37.086 66.1649C37.0862 65.4529 36.509 64.8758 35.7969 64.8758Z" fill="#404040"/>
<path d="M35.7969 71.0673H31.6169C30.9049 71.0673 30.3279 71.6444 30.3279 72.3563C30.3279 73.0682 30.9049 73.6454 31.6169 73.6454H35.7969C36.509 73.6454 37.086 73.0682 37.086 72.3563C37.086 71.6444 36.509 71.0673 35.7969 71.0673Z" fill="#404040"/>
<path d="M35.7969 77.2587H31.6169C30.9049 77.2587 30.3279 77.8358 30.3279 78.5477C30.3279 79.2596 30.9049 79.8368 31.6169 79.8368H35.7969C36.509 79.8368 37.086 79.2596 37.086 78.5477C37.0862 77.8358 36.509 77.2587 35.7969 77.2587Z" fill="#404040"/>
<path d="M35.7969 83.4501H31.6169C30.9049 83.4501 30.3279 84.0273 30.3279 84.7392C30.3279 85.4511 30.9049 86.0283 31.6169 86.0283H35.7969C36.509 86.0283 37.086 85.4511 37.086 84.7392C37.086 84.0273 36.509 83.4501 35.7969 83.4501Z" fill="#404040"/>
<path d="M35.7969 89.6418H31.6169C30.9049 89.6418 30.3279 90.2189 30.3279 90.9308C30.3279 91.6428 30.9049 92.2199 31.6169 92.2199H35.7969C36.509 92.2199 37.086 91.6428 37.086 90.9308C37.0862 90.2189 36.509 89.6418 35.7969 89.6418Z" fill="#404040"/>
<path d="M35.7969 95.8332H31.6169C30.9049 95.8332 30.3279 96.4103 30.3279 97.1223C30.3279 97.8342 30.9049 98.4113 31.6169 98.4113H35.7969C36.509 98.4113 37.086 97.8342 37.086 97.1223C37.0862 96.4103 36.509 95.8332 35.7969 95.8332Z" fill="#404040"/>
<path d="M89.8413 83.4501H74.3277C73.6156 83.4501 73.0386 84.0273 73.0386 84.7392C73.0386 85.4511 73.6156 86.0283 74.3277 86.0283H89.8413C90.5534 86.0283 91.1304 85.4511 91.1304 84.7392C91.1304 84.0273 90.5532 83.4501 89.8413 83.4501Z" fill="#404040"/>
<path d="M89.8413 89.6418H74.3277C73.6156 89.6418 73.0386 90.2189 73.0386 90.9308C73.0386 91.6428 73.6156 92.2199 74.3277 92.2199H89.8413C90.5534 92.2199 91.1304 91.6428 91.1304 90.9308C91.1305 90.2189 90.5532 89.6418 89.8413 89.6418Z" fill="#404040"/>
<path d="M89.8413 95.8332H74.3277C73.6156 95.8332 73.0386 96.4103 73.0386 97.1223C73.0386 97.8342 73.6156 98.4113 74.3277 98.4113H89.8413C90.5534 98.4113 91.1304 97.8342 91.1304 97.1223C91.1305 96.4103 90.5532 95.8332 89.8413 95.8332Z" fill="#404040"/>
<path d="M63.051 51.3723H45.8226C45.1105 51.3723 44.5335 51.9494 44.5335 52.6613V57.4123C44.5335 58.1242 45.1107 58.7013 45.8226 58.7013H63.051C63.7631 58.7013 64.34 58.1242 64.34 57.4123V52.6613C64.34 51.9494 63.7631 51.3723 63.051 51.3723ZM61.7617 56.1232H47.1116V53.9506H61.7617V56.1232Z" fill="#404040"/>
<path d="M63.051 61.2707H45.8226C45.1105 61.2707 44.5335 61.8478 44.5335 62.5598V67.3107C44.5335 68.0226 45.1107 68.5998 45.8226 68.5998H63.051C63.7631 68.5998 64.34 68.0226 64.34 67.3107V62.5598C64.34 61.8478 63.7631 61.2707 63.051 61.2707ZM61.7617 66.0215H47.1116V63.8488H61.7617V66.0215Z" fill="#404040"/>
<path d="M63.051 71.1688H45.8226C45.1105 71.1688 44.5335 71.746 44.5335 72.4579V77.2089C44.5335 77.9208 45.1107 78.4979 45.8226 78.4979H63.051C63.7631 78.4979 64.34 77.9208 64.34 77.2089V72.4579C64.34 71.746 63.7631 71.1688 63.051 71.1688ZM61.7617 75.92H47.1116V73.7473H61.7617V75.92Z" fill="#404040"/>
<path d="M63.051 81.0673H45.8226C45.1105 81.0673 44.5335 81.6444 44.5335 82.3563V87.1073C44.5335 87.8192 45.1107 88.3964 45.8226 88.3964H63.051C63.7631 88.3964 64.34 87.8192 64.34 87.1073V82.3563C64.34 81.6444 63.7631 81.0673 63.051 81.0673ZM61.7617 85.8181H47.1116V83.6454H61.7617V85.8181Z" fill="#404040"/>
<path d="M63.051 90.9656H45.8226C45.1105 90.9656 44.5335 91.5427 44.5335 92.2546V97.0056C44.5335 97.7175 45.1107 98.2947 45.8226 98.2947H63.051C63.7631 98.2947 64.34 97.7175 64.34 97.0056V92.2546C64.34 91.5427 63.7631 90.9656 63.051 90.9656ZM61.7617 95.7165H47.1116V93.5439H61.7617V95.7165Z" fill="#404040"/>
<path d="M63.051 41.474H57.4447C56.7327 41.474 56.1557 42.0512 56.1557 42.7631C56.1557 43.475 56.7327 44.0521 57.4447 44.0521H61.7617V46.2248H47.1116V44.0521H51.4286C52.1407 44.0521 52.7177 43.475 52.7177 42.7631C52.7177 42.0512 52.1407 41.474 51.4286 41.474H45.8224C45.1103 41.474 44.5333 42.0512 44.5333 42.7631V47.514C44.5333 48.2259 45.1105 48.8031 45.8224 48.8031H63.0508C63.7629 48.8031 64.3399 48.2259 64.3399 47.514V42.7631C64.34 42.0512 63.763 41.474 63.051 41.474Z" fill="#404040"/>
</svg>
