<svg width="110" height="42" viewBox="0 0 110 42" fill="none" xmlns="http://www.w3.org/2000/svg">
<g clip-path="url(#clip0_277_12)">
<path fillRule="evenodd" clipRule="evenodd" d="M64.2893 9.48697H56.0554V4.51058H77.7507V9.48697H69.5167V31.4606H64.292V9.48697H64.2893ZM109.647 0.5L96.1175 4.08497L86.1865 14.9899L91.1793 14.316L81.3329 23.7668L85.2644 23.1857L75.669 34.238L97.0478 18.3866L91.4194 19.4534L103.975 8.94132L98.2537 9.60702L109.647 0.5ZM92.2679 3.65117C92.98 3.65117 93.6839 3.69755 94.3823 3.79304L90.1098 8.47478C85.8591 9.35601 82.6316 12.8018 82.3533 16.9898L82.3315 17.0143H82.3533C82.3397 17.2053 82.3315 17.3935 82.3315 17.5873C82.3315 18.5476 82.487 19.467 82.7707 20.3346L79.0412 23.9114C78.0099 22.0153 77.4315 19.8708 77.4315 17.5873C77.4315 9.89076 84.0749 3.65117 92.2679 3.65117ZM103.967 9.01498C105.931 11.3859 107.102 14.357 107.102 17.5845C107.102 25.2837 100.461 31.5233 92.2706 31.5233C88.8657 31.5233 85.7309 30.4484 83.2318 28.6368L87.2642 25.6493C88.7348 26.4542 90.4454 26.9207 92.2706 26.9207C97.7517 26.9207 102.202 22.741 102.202 17.5873C102.202 15.5274 101.489 13.6231 100.281 12.0816L103.967 9.01498ZM0 31.4633V26.5142H22.7539V31.4606H0V31.4633ZM0 20.3455V15.4074H14.6373V20.3455H0ZM0 9.44878V4.51058H22.5084V9.44878H0ZM31.0997 26.4842H44.9076V31.4606H25.9133V4.51058H31.0997V26.4842ZM47.8487 31.4633V4.51058H53.0433V31.4633H47.8487ZM9.98553 40.3793H7.84928L7.97205 39.7273H10.111L9.98553 40.3793ZM9.84638 41.9481H6.61882L7.33909 38.2022H10.5748L10.4493 38.8597H7.86565L7.39092 41.2961H9.97734L9.84638 41.9481ZM14.9237 41.9563H13.9797L12.9266 40.5867L11.3497 41.9563H10.4057L12.5883 40.0929L11.1314 38.2049H12.0454L13.1203 39.5909L14.7382 38.2049H15.644L13.4695 40.0847L14.9237 41.9563ZM19.9765 39.5554C19.8919 39.9646 19.6846 40.292 19.3354 40.5458C19.0107 40.7804 18.6369 40.895 18.2195 40.895H16.5716L16.6971 40.2457H18.4459C18.6615 40.2457 18.8552 40.1829 19.0271 40.052C19.1962 39.9292 19.3053 39.76 19.3435 39.55C19.3899 39.3317 19.3435 39.1707 19.2262 39.0479C19.1035 38.9224 18.9343 38.8624 18.716 38.8624H16.5798L15.9823 41.9508H15.3248L16.0532 38.2049H18.7379C19.1553 38.2049 19.48 38.3277 19.7119 38.5623C19.9683 38.8133 20.0556 39.138 19.9765 39.5554ZM23.3514 40.3793H21.2151L21.3407 39.7273H23.4769L23.3514 40.3793ZM23.2123 41.9481H19.9847L20.705 38.2022H23.9407L23.8179 38.8597H21.2315L20.7595 41.2961H23.335L23.2123 41.9481ZM28.3141 41.9481H27.3538L26.5189 40.895H25.1111L25.2339 40.2457H26.9827C27.231 40.2457 27.4411 40.1911 27.6239 40.082C27.834 39.9592 27.9649 39.79 28.0031 39.5554C28.0959 39.0916 27.8476 38.8597 27.2528 38.8597H25.1166L24.5191 41.9481H23.8698L24.59 38.2022H27.2774C27.7576 38.2022 28.1286 38.3113 28.3824 38.5187C28.677 38.7588 28.778 39.108 28.6907 39.5636C28.6279 39.8828 28.4751 40.1529 28.235 40.3766C28.0113 40.5922 27.733 40.7395 27.4002 40.8241L28.3141 41.9481ZM29.681 41.9481H29.0317L29.7601 38.2022H30.4095L29.681 41.9481ZM33.9317 40.3793H31.7954L31.9264 39.7273H34.0626L33.9317 40.3793ZM33.8007 41.9481H30.565L31.2934 38.2022H34.5292L34.3955 38.8597H31.82L31.3453 41.2961H33.9235L33.8007 41.9481ZM38.3215 41.6234C38.2751 41.8663 38.1742 41.989 38.005 41.989C37.8877 41.989 37.7649 41.9126 37.6394 41.7653L35.7105 39.359L35.2085 41.9508H34.5565L35.2222 38.5296C35.2385 38.445 35.2767 38.3659 35.3395 38.3059C35.4022 38.2431 35.4704 38.2131 35.5632 38.2131C35.6805 38.2131 35.7951 38.2758 35.8961 38.3986L37.8331 40.805L38.3351 38.2131H38.9845L38.3215 41.6234ZM43.0523 41.9481H40.9461C40.3977 41.9481 39.9858 41.7708 39.6993 41.4079C39.4128 41.0423 39.3201 40.5867 39.4292 40.0383C39.5383 39.4872 39.7948 39.0479 40.2122 38.7151C40.6296 38.3741 41.118 38.2049 41.6664 38.2049H43.7808L43.6471 38.8624H41.5436C41.1862 38.8624 40.8697 38.977 40.5914 39.2035C40.3131 39.4354 40.144 39.7273 40.0731 40.0929C40.0048 40.4503 40.0567 40.7422 40.2504 40.9659C40.4359 41.1842 40.7169 41.2988 41.0716 41.2988H43.1751L43.0523 41.9481ZM47.0438 40.3793H44.9076L45.0331 39.7273H47.1693L47.0438 40.3793ZM46.9129 41.9481H43.6771L44.4056 38.2022H47.6331L47.5104 38.8597H44.924L44.452 41.2961H47.0356L46.9129 41.9481ZM53.338 38.8624H51.8674L51.2618 41.9508H50.6206L51.2181 38.8624H49.7394L49.8621 38.2049H53.4689L53.338 38.8624ZM56.9993 41.9481H56.35L56.6501 40.393H54.4511L54.5766 39.7437H56.7729L57.0676 38.2049H57.7251L56.9993 41.9481ZM53.8564 41.9481H53.1988L53.9273 38.2022H54.5766L53.8564 41.9481ZM61.0236 40.3793H58.8873L59.0101 39.7273H61.1463L61.0236 40.3793ZM60.8899 41.9481H57.6569L58.3853 38.2022H61.6129L61.4874 38.8597H58.9091L58.4371 41.2961H61.0154L60.8899 41.9481ZM67.8497 40.0383C67.7433 40.5867 67.4787 41.0423 67.0531 41.4079C66.6275 41.7735 66.1391 41.9481 65.5962 41.9481H63.4845L64.2129 38.2022H66.3192C66.8757 38.2022 67.2932 38.3713 67.5796 38.7124C67.8661 39.0479 67.9589 39.4872 67.8497 40.0383ZM67.1922 40.0929C67.2604 39.7273 67.2004 39.4354 67.0149 39.2035C66.8294 38.977 66.5511 38.8624 66.1937 38.8624H64.7313L64.2593 41.2988H65.7217C66.0791 41.2988 66.3956 41.1842 66.6738 40.9659C66.9439 40.7422 67.1213 40.4476 67.1922 40.0929ZM68.7719 41.9481H68.1226L68.851 38.2022H69.5003L68.7719 41.9481ZM73.0198 40.3793H70.8809L71.0064 39.7273H73.1426L73.0198 40.3793ZM73.4836 38.8624H70.8972L70.2997 41.9508H69.6504L70.3707 38.2049H73.6037L73.4836 38.8624ZM76.5748 40.3793H74.4276L74.5613 39.7273H76.6976L76.5748 40.3793ZM77.0386 38.8624H74.4522L73.8547 41.9508H73.1972L73.9256 38.2049H77.1586L77.0277 38.8624H77.0386ZM80.3807 40.3793H78.2445L78.3782 39.7273H80.5144L80.3807 40.3793ZM80.2498 41.9481H77.014L77.7425 38.2022H80.9782L80.8473 38.8597H78.2691L77.7971 41.2961H80.3726L80.2498 41.9481ZM85.349 41.9481H84.3886L83.5456 40.895H82.1378L82.2714 40.2457H84.0203C84.2604 40.2457 84.4786 40.1911 84.6642 40.082C84.8715 39.9592 84.997 39.79 85.0434 39.5554C85.1361 39.0916 84.8797 38.8597 84.2931 38.8597H82.1569L81.5512 41.9481H80.9018L81.6303 38.2022H84.3177C84.7978 38.2022 85.1689 38.3113 85.4226 38.5187C85.7173 38.7588 85.8182 39.108 85.7255 39.5636C85.6627 39.8828 85.5154 40.1529 85.2671 40.3766C85.0434 40.5922 84.7651 40.7395 84.4377 40.8241L85.349 41.9481ZM89.3295 40.3793H87.1933L87.3242 39.7273H89.4605L89.3295 40.3793ZM89.1986 41.9481H85.9628L86.6913 38.2022H89.927L89.7933 38.8597H87.2178L86.7431 41.2961H89.3213L89.1986 41.9481ZM93.7166 41.6234C93.6702 41.8663 93.5693 41.989 93.4001 41.989C93.2828 41.989 93.16 41.9126 93.0427 41.7653L91.1056 39.359L90.6036 41.9508H89.9516L90.6173 38.5296C90.6337 38.445 90.6718 38.3659 90.7346 38.3059C90.7973 38.2431 90.8655 38.2131 90.9583 38.2131C91.0756 38.2131 91.1902 38.2758 91.2912 38.3986L93.2282 40.805L93.7302 38.2131H94.3796L93.7166 41.6234ZM98.4475 41.9481H96.333C95.7928 41.9481 95.3809 41.7708 95.0944 41.4079C94.8079 41.0423 94.7152 40.5867 94.8243 40.0383C94.9334 39.4872 95.1981 39.0479 95.6073 38.7151C96.0247 38.3741 96.5131 38.2049 97.0615 38.2049H99.1759L99.0504 38.8624H96.9387C96.5813 38.8624 96.2648 38.977 95.9865 39.2035C95.7083 39.4354 95.5391 39.7273 95.4682 40.0929C95.4 40.4503 95.46 40.7422 95.6455 40.9659C95.831 41.1842 96.1093 41.2988 96.4667 41.2988H98.5702L98.4475 41.9481ZM102.439 40.3793H100.303L100.428 39.7273H102.564L102.439 40.3793ZM102.308 41.9481H99.0722L99.7925 38.2022H103.028L102.905 38.8597H100.319L99.8471 41.2961H102.431L102.308 41.9481Z" fill="white"/>
<path fillRule="evenodd" clipRule="evenodd" d="M64.2893 9.48697H56.0554V4.51058H77.7507V9.48697H69.5167V31.4606H64.292V9.48697H64.2893ZM109.647 0.5L96.1175 4.08497L86.1865 14.9899L91.1793 14.316L81.3329 23.7668L85.2644 23.1857L75.669 34.238L97.0478 18.3866L91.4194 19.4534L103.975 8.94132L98.2537 9.60702L109.647 0.5ZM92.2679 3.65117C92.98 3.65117 93.6839 3.69755 94.3823 3.79304L90.1098 8.47478C85.8591 9.35601 82.6316 12.8018 82.3533 16.9898L82.3315 17.0143H82.3533C82.3397 17.2053 82.3315 17.3935 82.3315 17.5873C82.3315 18.5476 82.487 19.467 82.7707 20.3346L79.0412 23.9114C78.0099 22.0153 77.4315 19.8708 77.4315 17.5873C77.4315 9.89076 84.0749 3.65117 92.2679 3.65117ZM103.967 9.01498C105.931 11.3859 107.102 14.357 107.102 17.5845C107.102 25.2837 100.461 31.5233 92.2706 31.5233C88.8657 31.5233 85.7309 30.4484 83.2318 28.6368L87.2642 25.6493C88.7348 26.4542 90.4454 26.9207 92.2706 26.9207C97.7517 26.9207 102.202 22.741 102.202 17.5873C102.202 15.5274 101.489 13.6231 100.281 12.0816L103.967 9.01498ZM0 31.4633V26.5142H22.7539V31.4606H0V31.4633ZM0 20.3455V15.4074H14.6373V20.3455H0ZM0 9.44878V4.51058H22.5084V9.44878H0ZM31.0997 26.4842H44.9076V31.4606H25.9133V4.51058H31.0997V26.4842ZM47.8487 31.4633V4.51058H53.0433V31.4633H47.8487ZM9.98553 40.3793H7.84928L7.97205 39.7273H10.111L9.98553 40.3793ZM9.84638 41.9481H6.61882L7.33909 38.2022H10.5748L10.4493 38.8597H7.86565L7.39092 41.2961H9.97734L9.84638 41.9481ZM14.9237 41.9563H13.9797L12.9266 40.5867L11.3497 41.9563H10.4057L12.5883 40.0929L11.1314 38.2049H12.0454L13.1203 39.5909L14.7382 38.2049H15.644L13.4695 40.0847L14.9237 41.9563ZM19.9765 39.5554C19.8919 39.9646 19.6846 40.292 19.3354 40.5458C19.0107 40.7804 18.6369 40.895 18.2195 40.895H16.5716L16.6971 40.2457H18.4459C18.6615 40.2457 18.8552 40.1829 19.0271 40.052C19.1962 39.9292 19.3053 39.76 19.3435 39.55C19.3899 39.3317 19.3435 39.1707 19.2262 39.0479C19.1035 38.9224 18.9343 38.8624 18.716 38.8624H16.5798L15.9823 41.9508H15.3248L16.0532 38.2049H18.7379C19.1553 38.2049 19.48 38.3277 19.7119 38.5623C19.9683 38.8133 20.0556 39.138 19.9765 39.5554ZM23.3514 40.3793H21.2151L21.3407 39.7273H23.4769L23.3514 40.3793ZM23.2123 41.9481H19.9847L20.705 38.2022H23.9407L23.8179 38.8597H21.2315L20.7595 41.2961H23.335L23.2123 41.9481ZM28.3141 41.9481H27.3538L26.5189 40.895H25.1111L25.2339 40.2457H26.9827C27.231 40.2457 27.4411 40.1911 27.6239 40.082C27.834 39.9592 27.9649 39.79 28.0031 39.5554C28.0959 39.0916 27.8476 38.8597 27.2528 38.8597H25.1166L24.5191 41.9481H23.8698L24.59 38.2022H27.2774C27.7576 38.2022 28.1286 38.3113 28.3824 38.5187C28.677 38.7588 28.778 39.108 28.6907 39.5636C28.6279 39.8828 28.4751 40.1529 28.235 40.3766C28.0113 40.5922 27.733 40.7395 27.4002 40.8241L28.3141 41.9481ZM29.681 41.9481H29.0317L29.7601 38.2022H30.4095L29.681 41.9481ZM33.9317 40.3793H31.7954L31.9264 39.7273H34.0626L33.9317 40.3793ZM33.8007 41.9481H30.565L31.2934 38.2022H34.5292L34.3955 38.8597H31.82L31.3453 41.2961H33.9235L33.8007 41.9481ZM38.3215 41.6234C38.2751 41.8663 38.1742 41.989 38.005 41.989C37.8877 41.989 37.7649 41.9126 37.6394 41.7653L35.7105 39.359L35.2085 41.9508H34.5565L35.2222 38.5296C35.2385 38.445 35.2767 38.3659 35.3395 38.3059C35.4022 38.2431 35.4704 38.2131 35.5632 38.2131C35.6805 38.2131 35.7951 38.2758 35.8961 38.3986L37.8331 40.805L38.3351 38.2131H38.9845L38.3215 41.6234ZM43.0523 41.9481H40.9461C40.3977 41.9481 39.9858 41.7708 39.6993 41.4079C39.4128 41.0423 39.3201 40.5867 39.4292 40.0383C39.5383 39.4872 39.7948 39.0479 40.2122 38.7151C40.6296 38.3741 41.118 38.2049 41.6664 38.2049H43.7808L43.6471 38.8624H41.5436C41.1862 38.8624 40.8697 38.977 40.5914 39.2035C40.3131 39.4354 40.144 39.7273 40.0731 40.0929C40.0048 40.4503 40.0567 40.7422 40.2504 40.9659C40.4359 41.1842 40.7169 41.2988 41.0716 41.2988H43.1751L43.0523 41.9481ZM47.0438 40.3793H44.9076L45.0331 39.7273H47.1693L47.0438 40.3793ZM46.9129 41.9481H43.6771L44.4056 38.2022H47.6331L47.5104 38.8597H44.924L44.452 41.2961H47.0356L46.9129 41.9481ZM53.338 38.8624H51.8674L51.2618 41.9508H50.6206L51.2181 38.8624H49.7394L49.8621 38.2049H53.4689L53.338 38.8624ZM56.9993 41.9481H56.35L56.6501 40.393H54.4511L54.5766 39.7437H56.7729L57.0676 38.2049H57.7251L56.9993 41.9481ZM53.8564 41.9481H53.1988L53.9273 38.2022H54.5766L53.8564 41.9481ZM61.0236 40.3793H58.8873L59.0101 39.7273H61.1463L61.0236 40.3793ZM60.8899 41.9481H57.6569L58.3853 38.2022H61.6129L61.4874 38.8597H58.9091L58.4371 41.2961H61.0154L60.8899 41.9481ZM67.8497 40.0383C67.7433 40.5867 67.4787 41.0423 67.0531 41.4079C66.6275 41.7735 66.1391 41.9481 65.5962 41.9481H63.4845L64.2129 38.2022H66.3192C66.8757 38.2022 67.2932 38.3713 67.5796 38.7124C67.8661 39.0479 67.9589 39.4872 67.8497 40.0383ZM67.1922 40.0929C67.2604 39.7273 67.2004 39.4354 67.0149 39.2035C66.8294 38.977 66.5511 38.8624 66.1937 38.8624H64.7313L64.2593 41.2988H65.7217C66.0791 41.2988 66.3956 41.1842 66.6738 40.9659C66.9439 40.7422 67.1213 40.4476 67.1922 40.0929ZM68.7719 41.9481H68.1226L68.851 38.2022H69.5003L68.7719 41.9481ZM73.0198 40.3793H70.8809L71.0064 39.7273H73.1426L73.0198 40.3793ZM73.4836 38.8624H70.8972L70.2997 41.9508H69.6504L70.3707 38.2049H73.6037L73.4836 38.8624ZM76.5748 40.3793H74.4276L74.5613 39.7273H76.6976L76.5748 40.3793ZM77.0386 38.8624H74.4522L73.8547 41.9508H73.1972L73.9256 38.2049H77.1586L77.0277 38.8624H77.0386ZM80.3807 40.3793H78.2445L78.3782 39.7273H80.5144L80.3807 40.3793ZM80.2498 41.9481H77.014L77.7425 38.2022H80.9782L80.8473 38.8597H78.2691L77.7971 41.2961H80.3726L80.2498 41.9481ZM85.349 41.9481H84.3886L83.5456 40.895H82.1378L82.2714 40.2457H84.0203C84.2604 40.2457 84.4786 40.1911 84.6642 40.082C84.8715 39.9592 84.997 39.79 85.0434 39.5554C85.1361 39.0916 84.8797 38.8597 84.2931 38.8597H82.1569L81.5512 41.9481H80.9018L81.6303 38.2022H84.3177C84.7978 38.2022 85.1689 38.3113 85.4226 38.5187C85.7173 38.7588 85.8182 39.108 85.7255 39.5636C85.6627 39.8828 85.5154 40.1529 85.2671 40.3766C85.0434 40.5922 84.7651 40.7395 84.4377 40.8241L85.349 41.9481ZM89.3295 40.3793H87.1933L87.3242 39.7273H89.4605L89.3295 40.3793ZM89.1986 41.9481H85.9628L86.6913 38.2022H89.927L89.7933 38.8597H87.2178L86.7431 41.2961H89.3213L89.1986 41.9481ZM93.7166 41.6234C93.6702 41.8663 93.5693 41.989 93.4001 41.989C93.2828 41.989 93.16 41.9126 93.0427 41.7653L91.1056 39.359L90.6036 41.9508H89.9516L90.6173 38.5296C90.6337 38.445 90.6718 38.3659 90.7346 38.3059C90.7973 38.2431 90.8655 38.2131 90.9583 38.2131C91.0756 38.2131 91.1902 38.2758 91.2912 38.3986L93.2282 40.805L93.7302 38.2131H94.3796L93.7166 41.6234ZM98.4475 41.9481H96.333C95.7928 41.9481 95.3809 41.7708 95.0944 41.4079C94.8079 41.0423 94.7152 40.5867 94.8243 40.0383C94.9334 39.4872 95.1981 39.0479 95.6073 38.7151C96.0247 38.3741 96.5131 38.2049 97.0615 38.2049H99.1759L99.0504 38.8624H96.9387C96.5813 38.8624 96.2648 38.977 95.9865 39.2035C95.7083 39.4354 95.5391 39.7273 95.4682 40.0929C95.4 40.4503 95.46 40.7422 95.6455 40.9659C95.831 41.1842 96.1093 41.2988 96.4667 41.2988H98.5702L98.4475 41.9481ZM102.439 40.3793H100.303L100.428 39.7273H102.564L102.439 40.3793ZM102.308 41.9481H99.0722L99.7925 38.2022H103.028L102.905 38.8597H100.319L99.8471 41.2961H102.431L102.308 41.9481Z" fill="white"/>
</g>
<defs>
<clipPath id="clip0_277_12">
<rect width="109.647" height="41.489" fill="white" transform="translate(0 0.5)"/>
</clipPath>
</defs>
</svg>
