<svg width="116" height="116" viewBox="0 0 116 116" fill="none" xmlns="http://www.w3.org/2000/svg">
<rect width="116" height="116" fill="#FAFAFA"/>
<g clip-path="url(#clip0_77_444)">
<path d="M97.7988 81.2569C98.4624 81.2569 99 80.7191 99 80.0558V78.2149C99 74.8942 96.8811 71.965 93.7267 70.9256L86.219 68.4553V65.856C88.8333 64.2876 90.5872 61.4261 90.5872 58.1619V52.9849C90.5872 48.0405 86.5647 44.018 81.6203 44.018C78.708 44.018 76.1166 45.4146 74.4775 47.5721C73.5702 45.8694 72.0316 44.5416 70.1054 43.909L62.5986 41.4374V38.8381C65.2128 37.2697 66.9667 34.4082 66.9667 31.144V25.9668C66.9668 21.0225 62.9443 17 58 17C53.0557 17 49.0332 21.0225 49.0332 25.9668V31.1439C49.0332 34.408 50.787 37.2695 53.4013 38.8379V41.4373L45.8952 43.9087C43.9686 44.5416 42.4298 45.8694 41.5225 47.5721C39.8834 45.4144 37.292 44.018 34.3797 44.018C29.4353 44.018 25.4128 48.0405 25.4128 52.9849V58.1619C25.4128 61.4261 27.1667 64.2876 29.7809 65.856V68.4553L22.2727 70.9257C19.1189 71.965 17 74.8942 17 78.2149V80.0558C17 80.7191 17.5376 81.2569 18.2012 81.2569C18.8647 81.2569 19.4023 80.7191 19.4023 80.0558V78.2149C19.4023 75.9337 20.858 73.9213 23.024 73.2075L30.0566 70.8934C30.6993 72.6591 32.3944 73.9234 34.3795 73.9234C36.3645 73.9234 38.0596 72.6589 38.7023 70.8934L45.734 73.2072C47.2753 73.7152 48.4696 74.8853 49.022 76.3682L45.8944 77.3975C42.7398 78.4356 40.6203 81.3646 40.6203 84.6854V86.0815H26.1973V83.0761C26.1973 82.4128 25.6596 81.875 24.9961 81.875C24.3326 81.875 23.7949 82.4128 23.7949 83.0761V86.0815H19.4023V85.6667C19.4023 85.0033 18.8647 84.4655 18.2012 84.4655C17.5376 84.4655 17 85.0033 17 85.6667V87.2827C17 87.946 17.5376 88.4838 18.2012 88.4838H40.6203V97.7985C40.6203 98.4619 41.158 98.9997 41.8215 98.9997H74.1783C74.8419 98.9997 75.3795 98.4619 75.3795 97.7985V96.1941C75.3795 95.5307 74.8419 94.9929 74.1783 94.9929C73.5148 94.9929 72.9772 95.5307 72.9772 96.1941V96.5977H68.5847V89.5479C68.5847 88.8845 68.0471 88.3467 67.3836 88.3467C66.72 88.3467 66.1824 88.8845 66.1824 89.5479V96.5977H49.8176V89.5479C49.8176 88.8845 49.28 88.3467 48.6164 88.3467C47.9529 88.3467 47.4153 88.8845 47.4153 89.5479V96.5977H43.0227V84.6857C43.0227 82.4046 44.4785 80.3927 46.6454 79.6797L53.6772 77.3655C54.3201 79.1309 56.015 80.3951 58 80.3951C59.985 80.3951 61.6799 79.131 62.3228 77.3655L69.3546 79.6797C71.5215 80.3929 72.9773 82.4046 72.9773 84.6857V90.5862C72.9773 91.2496 73.515 91.7874 74.1785 91.7874C74.842 91.7874 75.3797 91.2496 75.3797 90.5862V88.4841H97.7988C98.4624 88.4841 99 87.9463 99 87.283V85.667C99 85.0036 98.4624 84.4658 97.7988 84.4658C97.1353 84.4658 96.5977 85.0036 96.5977 85.667V86.0818H92.205V83.0765C92.205 82.4131 91.6674 81.8753 91.0039 81.8753C90.3404 81.8753 89.8027 82.4131 89.8027 83.0765V86.0818H75.3795V84.6857C75.3795 81.3647 73.26 78.4359 70.1054 77.3978L66.9779 76.3685C67.5303 74.8858 68.7244 73.7156 70.2652 73.2076L77.2975 70.8937C77.9403 72.6593 79.6353 73.9237 81.6203 73.9237C83.6055 73.9237 85.3006 72.6593 85.9433 70.8937L92.9752 73.2076C95.142 73.9213 96.5977 75.9337 96.5977 78.2149V80.0558C96.5977 80.7191 97.1353 81.2569 97.7988 81.2569ZM81.6203 46.4202C85.24 46.4202 88.1848 49.365 88.1848 52.9847V58.1618C88.1848 61.7815 85.2399 64.7262 81.6203 64.7262C78.0008 64.7262 75.056 61.7815 75.056 58.1618V52.9847C75.056 49.365 78.0008 46.4202 81.6203 46.4202ZM51.4355 31.1439V25.9668C51.4355 22.3471 54.3803 19.4023 58 19.4023C61.6197 19.4023 64.5645 22.3471 64.5645 25.9668V31.1439C64.5645 34.7636 61.6195 37.7084 58 37.7084C54.3805 37.7084 51.4355 34.7636 51.4355 31.1439ZM58 40.1107C58.7575 40.1107 59.4931 40.0154 60.1964 39.8376V42.2747C60.1961 42.2861 60.1962 42.2973 60.1964 42.3085C60.1954 43.5188 59.2106 44.5032 58.0002 44.5032C56.7897 44.5032 55.8047 43.5188 55.8039 42.3085C55.8039 42.2972 55.8041 42.2859 55.8039 42.2747V39.8376C56.5069 40.0153 57.2425 40.1107 58 40.1107ZM46.6457 46.1907L53.6771 43.8757C54.3198 45.6412 56.0149 46.9055 57.9998 46.9055C59.9848 46.9055 61.6799 45.6412 62.3226 43.8757L69.3548 46.1909C71.3626 46.8504 72.755 48.6088 72.9496 50.6991C72.757 51.4291 72.6533 52.195 72.6533 52.9847V58.1618C72.6533 58.4661 72.6689 58.7668 72.6987 59.0634H66.9566C66.7503 54.3007 62.8124 50.4892 57.9997 50.4892C53.187 50.4892 49.2491 54.3007 49.0428 59.0634H43.3007C43.3305 58.7668 43.346 58.4661 43.346 58.1618V52.9847C43.346 52.195 43.2424 51.4293 43.0497 50.6991C43.2446 48.6089 44.6372 46.8506 46.6457 46.1907ZM58 71.1975C54.3803 71.1975 51.4355 68.2527 51.4355 64.633V59.456C51.4355 55.8363 54.3805 52.8915 58 52.8915C61.6195 52.8915 64.5645 55.8363 64.5645 59.456V64.633C64.5645 68.2527 61.6197 71.1975 58 71.1975ZM27.815 58.1618V52.9847C27.815 49.365 30.76 46.4202 34.3795 46.4202C37.999 46.4202 40.9438 49.365 40.9438 52.9847V58.1618C40.9438 61.7815 37.999 64.7262 34.3795 64.7262C30.76 64.7262 27.815 61.7815 27.815 58.1618ZM36.5757 69.3248C36.5757 70.5359 35.5906 71.521 34.3795 71.521C33.1684 71.521 32.1831 70.5358 32.1831 69.3248V66.8555C32.8862 67.0333 33.6218 67.1286 34.3795 67.1286C35.1371 67.1286 35.8727 67.0333 36.5757 66.8555V69.3248ZM46.4854 70.9256L38.9782 68.4553V65.8558C40.6581 64.848 41.9809 63.3055 42.7129 61.4658H49.0332V64.633C49.0332 67.8972 50.787 70.7587 53.4013 72.3271V74.9269L51.3034 75.6173C50.5143 73.4163 48.7604 71.6754 46.4854 70.9256ZM58 77.9926C56.7889 77.9926 55.8036 77.0073 55.8036 75.7962V75.7817C55.8036 75.7793 55.8036 75.7769 55.8036 75.7746V73.327C56.5067 73.5047 57.2423 73.6 58 73.6C58.7577 73.6 59.4931 73.5047 60.1964 73.327V75.7746V75.7817V75.7962C60.1964 77.0073 59.2111 77.9926 58 77.9926ZM69.5141 70.9257C67.2396 71.6754 65.4857 73.4163 64.6968 75.6175L62.5987 74.9271V72.3273C65.213 70.7589 66.9668 67.8973 66.9668 64.6332V61.4658H73.2871C74.0191 63.3057 75.3419 64.8481 77.0218 65.8558V68.4553L69.5141 70.9257ZM81.6203 71.5212C80.4092 71.5212 79.4241 70.5359 79.4241 69.325V66.8557C80.1272 67.0335 80.8628 67.1287 81.6203 67.1287C82.3779 67.1287 83.1135 67.0335 83.8167 66.8557V69.325C83.8167 70.5359 82.8314 71.5212 81.6203 71.5212Z" fill="#404040"/>
</g>
<defs>
<clipPath id="clip0_77_444">
<rect width="82" height="82" fill="white" transform="translate(17 17)"/>
</clipPath>
</defs>
</svg>
